<svg width="20" height="20" viewBox="0 0 24 24" fill="none" xmlns="http://www.w3.org/2000/svg">
<path d="M21.7959 7.54591L9.79593 19.5459C9.69141 19.6508 9.56722 19.734 9.43047 19.7908C9.29373 19.8476 9.14712 19.8768 8.99905 19.8768C8.85099 19.8768 8.70438 19.8476 8.56763 19.7908C8.43089 19.734 8.30669 19.6508 8.20218 19.5459L2.95218 14.2959C2.84753 14.1913 2.76452 14.067 2.70788 13.9303C2.65125 13.7936 2.6221 13.647 2.6221 13.499C2.6221 13.351 2.65125 13.2045 2.70788 13.0678C2.76452 12.931 2.84753 12.8068 2.95218 12.7022C3.05682 12.5975 3.18106 12.5145 3.31779 12.4579C3.45451 12.4012 3.60106 12.3721 3.74905 12.3721C3.89705 12.3721 4.04359 12.4012 4.18032 12.4579C4.31705 12.5145 4.44128 12.5975 4.54593 12.7022L8.99999 17.1562L20.2041 5.95404C20.4154 5.74269 20.702 5.62396 21.0009 5.62396C21.2998 5.62396 21.5865 5.74269 21.7978 5.95404C22.0091 6.16538 22.1279 6.45203 22.1279 6.75091C22.1279 7.0498 22.0091 7.33644 21.7978 7.54779L21.7959 7.54591Z" fill="#23A00F"/>
</svg>
